<mxfile host="app.diagrams.net" modified="2022-10-24T17:49:30.942Z" agent="5.0 (Macintosh; Intel Mac OS X 10_15_7) AppleWebKit/537.36 (KHTML, like Gecko) Chrome/106.0.0.0 Safari/537.36" etag="WbjPvlY8Ryf90nParBbg" version="20.4.1" type="github">
  <diagram id="R2lEEEUBdFMjLlhIrx00" name="Page-1">
    <mxGraphModel dx="1282" dy="1272" grid="1" gridSize="10" guides="1" tooltips="1" connect="1" arrows="1" fold="1" page="1" pageScale="1" pageWidth="850" pageHeight="1100" math="0" shadow="0" extFonts="Permanent Marker^https://fonts.googleapis.com/css?family=Permanent+Marker">
      <root>
        <mxCell id="0" />
        <mxCell id="1" parent="0" />
        <mxCell id="IMPbgYh3Mk9xhIyb0hvB-107" style="edgeStyle=orthogonalEdgeStyle;rounded=0;orthogonalLoop=1;jettySize=auto;html=1;entryX=0;entryY=0.5;entryDx=0;entryDy=0;" parent="1" source="IMPbgYh3Mk9xhIyb0hvB-1" target="IMPbgYh3Mk9xhIyb0hvB-22" edge="1">
          <mxGeometry relative="1" as="geometry" />
        </mxCell>
        <mxCell id="IMPbgYh3Mk9xhIyb0hvB-108" style="edgeStyle=orthogonalEdgeStyle;rounded=0;orthogonalLoop=1;jettySize=auto;html=1;entryX=0;entryY=0.5;entryDx=0;entryDy=0;" parent="1" source="IMPbgYh3Mk9xhIyb0hvB-1" target="IMPbgYh3Mk9xhIyb0hvB-20" edge="1">
          <mxGeometry relative="1" as="geometry" />
        </mxCell>
        <mxCell id="IMPbgYh3Mk9xhIyb0hvB-109" style="edgeStyle=orthogonalEdgeStyle;rounded=0;orthogonalLoop=1;jettySize=auto;html=1;entryX=0;entryY=0.5;entryDx=0;entryDy=0;" parent="1" source="IMPbgYh3Mk9xhIyb0hvB-1" target="IMPbgYh3Mk9xhIyb0hvB-21" edge="1">
          <mxGeometry relative="1" as="geometry" />
        </mxCell>
        <mxCell id="IMPbgYh3Mk9xhIyb0hvB-1" value="Student" style="shape=umlActor;verticalLabelPosition=bottom;verticalAlign=top;html=1;outlineConnect=0;" parent="1" vertex="1">
          <mxGeometry x="510" y="450" width="30" height="60" as="geometry" />
        </mxCell>
        <mxCell id="IMPbgYh3Mk9xhIyb0hvB-3" value="View all proposed projects" style="ellipse;whiteSpace=wrap;html=1;" parent="1" vertex="1">
          <mxGeometry x="820" y="580" width="110" height="40" as="geometry" />
        </mxCell>
        <mxCell id="IMPbgYh3Mk9xhIyb0hvB-53" style="edgeStyle=orthogonalEdgeStyle;rounded=0;orthogonalLoop=1;jettySize=auto;html=1;exitX=0;exitY=0.5;exitDx=0;exitDy=0;entryX=1;entryY=0.5;entryDx=0;entryDy=0;" parent="1" source="IMPbgYh3Mk9xhIyb0hvB-4" target="IMPbgYh3Mk9xhIyb0hvB-20" edge="1">
          <mxGeometry relative="1" as="geometry" />
        </mxCell>
        <mxCell id="IMPbgYh3Mk9xhIyb0hvB-4" value="Add projects to preference list" style="ellipse;whiteSpace=wrap;html=1;" parent="1" vertex="1">
          <mxGeometry x="820" y="260" width="110" height="40" as="geometry" />
        </mxCell>
        <mxCell id="IMPbgYh3Mk9xhIyb0hvB-48" style="edgeStyle=orthogonalEdgeStyle;rounded=0;orthogonalLoop=1;jettySize=auto;html=1;exitX=0;exitY=0.5;exitDx=0;exitDy=0;entryX=1;entryY=0.5;entryDx=0;entryDy=0;" parent="1" source="IMPbgYh3Mk9xhIyb0hvB-5" target="IMPbgYh3Mk9xhIyb0hvB-22" edge="1">
          <mxGeometry relative="1" as="geometry" />
        </mxCell>
        <mxCell id="IMPbgYh3Mk9xhIyb0hvB-5" value="Submit preferred projects" style="ellipse;whiteSpace=wrap;html=1;" parent="1" vertex="1">
          <mxGeometry x="820" y="500" width="110" height="40" as="geometry" />
        </mxCell>
        <mxCell id="IMPbgYh3Mk9xhIyb0hvB-82" style="edgeStyle=orthogonalEdgeStyle;rounded=0;orthogonalLoop=1;jettySize=auto;html=1;exitX=0;exitY=0.5;exitDx=0;exitDy=0;entryX=1;entryY=0.5;entryDx=0;entryDy=0;" parent="1" source="IMPbgYh3Mk9xhIyb0hvB-6" target="IMPbgYh3Mk9xhIyb0hvB-20" edge="1">
          <mxGeometry relative="1" as="geometry" />
        </mxCell>
        <mxCell id="IMPbgYh3Mk9xhIyb0hvB-6" value="Delete selected projects" style="ellipse;whiteSpace=wrap;html=1;" parent="1" vertex="1">
          <mxGeometry x="820" y="340" width="110" height="40" as="geometry" />
        </mxCell>
        <mxCell id="IMPbgYh3Mk9xhIyb0hvB-83" style="edgeStyle=orthogonalEdgeStyle;rounded=0;orthogonalLoop=1;jettySize=auto;html=1;exitX=0;exitY=0.5;exitDx=0;exitDy=0;entryX=1;entryY=0.5;entryDx=0;entryDy=0;" parent="1" source="IMPbgYh3Mk9xhIyb0hvB-7" target="IMPbgYh3Mk9xhIyb0hvB-22" edge="1">
          <mxGeometry relative="1" as="geometry" />
        </mxCell>
        <mxCell id="IMPbgYh3Mk9xhIyb0hvB-7" value="Submit a custom project proposal" style="ellipse;whiteSpace=wrap;html=1;" parent="1" vertex="1">
          <mxGeometry x="820" y="420" width="110" height="40" as="geometry" />
        </mxCell>
        <mxCell id="IMPbgYh3Mk9xhIyb0hvB-9" value="View allocated project" style="ellipse;whiteSpace=wrap;html=1;" parent="1" vertex="1">
          <mxGeometry x="820" y="660" width="110" height="40" as="geometry" />
        </mxCell>
        <mxCell id="IMPbgYh3Mk9xhIyb0hvB-75" style="edgeStyle=orthogonalEdgeStyle;rounded=0;orthogonalLoop=1;jettySize=auto;html=1;exitX=0.5;exitY=0;exitDx=0;exitDy=0;exitPerimeter=0;entryX=1;entryY=0.5;entryDx=0;entryDy=0;" parent="1" source="IMPbgYh3Mk9xhIyb0hvB-16" target="IMPbgYh3Mk9xhIyb0hvB-26" edge="1">
          <mxGeometry relative="1" as="geometry" />
        </mxCell>
        <mxCell id="IMPbgYh3Mk9xhIyb0hvB-103" style="edgeStyle=orthogonalEdgeStyle;rounded=0;orthogonalLoop=1;jettySize=auto;html=1;entryX=1;entryY=0.5;entryDx=0;entryDy=0;" parent="1" source="IMPbgYh3Mk9xhIyb0hvB-16" target="IMPbgYh3Mk9xhIyb0hvB-31" edge="1">
          <mxGeometry relative="1" as="geometry" />
        </mxCell>
        <mxCell id="IMPbgYh3Mk9xhIyb0hvB-16" value="Admin" style="shape=umlActor;verticalLabelPosition=bottom;verticalAlign=top;html=1;outlineConnect=0;" parent="1" vertex="1">
          <mxGeometry x="1450" y="250" width="30" height="60" as="geometry" />
        </mxCell>
        <mxCell id="IMPbgYh3Mk9xhIyb0hvB-102" style="edgeStyle=orthogonalEdgeStyle;rounded=0;orthogonalLoop=1;jettySize=auto;html=1;entryX=1;entryY=0.5;entryDx=0;entryDy=0;" parent="1" source="IMPbgYh3Mk9xhIyb0hvB-18" target="IMPbgYh3Mk9xhIyb0hvB-94" edge="1">
          <mxGeometry relative="1" as="geometry" />
        </mxCell>
        <mxCell id="IMPbgYh3Mk9xhIyb0hvB-18" value="Supervisor" style="shape=umlActor;verticalLabelPosition=bottom;verticalAlign=top;html=1;outlineConnect=0;" parent="1" vertex="1">
          <mxGeometry x="1450" y="490" width="30" height="60" as="geometry" />
        </mxCell>
        <mxCell id="IMPbgYh3Mk9xhIyb0hvB-20" value="Interact with projects" style="ellipse;whiteSpace=wrap;html=1;" parent="1" vertex="1">
          <mxGeometry x="630" y="300" width="110" height="40" as="geometry" />
        </mxCell>
        <mxCell id="IMPbgYh3Mk9xhIyb0hvB-56" style="edgeStyle=orthogonalEdgeStyle;rounded=0;orthogonalLoop=1;jettySize=auto;html=1;exitX=1;exitY=0.5;exitDx=0;exitDy=0;entryX=0;entryY=0.5;entryDx=0;entryDy=0;" parent="1" source="IMPbgYh3Mk9xhIyb0hvB-21" target="IMPbgYh3Mk9xhIyb0hvB-3" edge="1">
          <mxGeometry relative="1" as="geometry" />
        </mxCell>
        <mxCell id="IMPbgYh3Mk9xhIyb0hvB-57" style="edgeStyle=orthogonalEdgeStyle;rounded=0;orthogonalLoop=1;jettySize=auto;html=1;exitX=1;exitY=0.5;exitDx=0;exitDy=0;entryX=0;entryY=0.5;entryDx=0;entryDy=0;" parent="1" source="IMPbgYh3Mk9xhIyb0hvB-21" target="IMPbgYh3Mk9xhIyb0hvB-9" edge="1">
          <mxGeometry relative="1" as="geometry" />
        </mxCell>
        <mxCell id="IMPbgYh3Mk9xhIyb0hvB-21" value="View projects" style="ellipse;whiteSpace=wrap;html=1;" parent="1" vertex="1">
          <mxGeometry x="630" y="620" width="110" height="40" as="geometry" />
        </mxCell>
        <mxCell id="IMPbgYh3Mk9xhIyb0hvB-22" value="Submit projects" style="ellipse;whiteSpace=wrap;html=1;" parent="1" vertex="1">
          <mxGeometry x="630" y="460" width="110" height="40" as="geometry" />
        </mxCell>
        <mxCell id="IMPbgYh3Mk9xhIyb0hvB-64" style="edgeStyle=orthogonalEdgeStyle;rounded=0;orthogonalLoop=1;jettySize=auto;html=1;exitX=1;exitY=0.5;exitDx=0;exitDy=0;entryX=0;entryY=0.5;entryDx=0;entryDy=0;" parent="1" source="IMPbgYh3Mk9xhIyb0hvB-23" target="IMPbgYh3Mk9xhIyb0hvB-27" edge="1">
          <mxGeometry relative="1" as="geometry" />
        </mxCell>
        <mxCell id="IMPbgYh3Mk9xhIyb0hvB-23" value="Deny custom proposal" style="ellipse;whiteSpace=wrap;html=1;" parent="1" vertex="1">
          <mxGeometry x="820" y="20" width="110" height="40" as="geometry" />
        </mxCell>
        <mxCell id="IMPbgYh3Mk9xhIyb0hvB-72" style="edgeStyle=orthogonalEdgeStyle;rounded=0;orthogonalLoop=1;jettySize=auto;html=1;exitX=0;exitY=0.5;exitDx=0;exitDy=0;entryX=1;entryY=0.5;entryDx=0;entryDy=0;" parent="1" source="IMPbgYh3Mk9xhIyb0hvB-26" target="IMPbgYh3Mk9xhIyb0hvB-27" edge="1">
          <mxGeometry relative="1" as="geometry" />
        </mxCell>
        <mxCell id="IMPbgYh3Mk9xhIyb0hvB-74" style="edgeStyle=orthogonalEdgeStyle;rounded=0;orthogonalLoop=1;jettySize=auto;html=1;exitX=0;exitY=0.5;exitDx=0;exitDy=0;entryX=1;entryY=0.5;entryDx=0;entryDy=0;" parent="1" source="IMPbgYh3Mk9xhIyb0hvB-26" target="IMPbgYh3Mk9xhIyb0hvB-28" edge="1">
          <mxGeometry relative="1" as="geometry" />
        </mxCell>
        <mxCell id="IMPbgYh3Mk9xhIyb0hvB-87" style="edgeStyle=orthogonalEdgeStyle;rounded=0;orthogonalLoop=1;jettySize=auto;html=1;exitX=0;exitY=0.5;exitDx=0;exitDy=0;entryX=1;entryY=0.5;entryDx=0;entryDy=0;" parent="1" source="IMPbgYh3Mk9xhIyb0hvB-26" target="IMPbgYh3Mk9xhIyb0hvB-30" edge="1">
          <mxGeometry relative="1" as="geometry" />
        </mxCell>
        <mxCell id="IMPbgYh3Mk9xhIyb0hvB-26" value="Allocate projects" style="ellipse;whiteSpace=wrap;html=1;" parent="1" vertex="1">
          <mxGeometry x="1220" y="140" width="110" height="40" as="geometry" />
        </mxCell>
        <mxCell id="IMPbgYh3Mk9xhIyb0hvB-27" value="Modify project allocations" style="ellipse;whiteSpace=wrap;html=1;" parent="1" vertex="1">
          <mxGeometry x="990" y="100" width="110" height="40" as="geometry" />
        </mxCell>
        <mxCell id="IMPbgYh3Mk9xhIyb0hvB-28" value="Modify allocation algorithm settings" style="ellipse;whiteSpace=wrap;html=1;" parent="1" vertex="1">
          <mxGeometry x="990" y="180" width="110" height="40" as="geometry" />
        </mxCell>
        <mxCell id="IMPbgYh3Mk9xhIyb0hvB-30" value="Post allocated projects" style="ellipse;whiteSpace=wrap;html=1;" parent="1" vertex="1">
          <mxGeometry x="990" y="260" width="110" height="40" as="geometry" />
        </mxCell>
        <mxCell id="IMPbgYh3Mk9xhIyb0hvB-99" style="edgeStyle=orthogonalEdgeStyle;rounded=0;orthogonalLoop=1;jettySize=auto;html=1;exitX=0;exitY=0.5;exitDx=0;exitDy=0;entryX=1;entryY=0.5;entryDx=0;entryDy=0;" parent="1" source="IMPbgYh3Mk9xhIyb0hvB-31" target="IMPbgYh3Mk9xhIyb0hvB-79" edge="1">
          <mxGeometry relative="1" as="geometry" />
        </mxCell>
        <mxCell id="IMPbgYh3Mk9xhIyb0hvB-100" style="edgeStyle=orthogonalEdgeStyle;rounded=0;orthogonalLoop=1;jettySize=auto;html=1;exitX=0;exitY=0.5;exitDx=0;exitDy=0;entryX=1;entryY=0.5;entryDx=0;entryDy=0;" parent="1" source="IMPbgYh3Mk9xhIyb0hvB-31" target="IMPbgYh3Mk9xhIyb0hvB-78" edge="1">
          <mxGeometry relative="1" as="geometry" />
        </mxCell>
        <mxCell id="IMPbgYh3Mk9xhIyb0hvB-104" style="edgeStyle=orthogonalEdgeStyle;rounded=0;orthogonalLoop=1;jettySize=auto;html=1;exitX=0.5;exitY=1;exitDx=0;exitDy=0;entryX=0.5;entryY=0;entryDx=0;entryDy=0;" parent="1" source="IMPbgYh3Mk9xhIyb0hvB-31" target="IMPbgYh3Mk9xhIyb0hvB-94" edge="1">
          <mxGeometry relative="1" as="geometry" />
        </mxCell>
        <mxCell id="IMPbgYh3Mk9xhIyb0hvB-31" value="View all projects" style="ellipse;whiteSpace=wrap;html=1;" parent="1" vertex="1">
          <mxGeometry x="1220" y="340" width="110" height="40" as="geometry" />
        </mxCell>
        <mxCell id="IMPbgYh3Mk9xhIyb0hvB-66" style="edgeStyle=orthogonalEdgeStyle;rounded=0;orthogonalLoop=1;jettySize=auto;html=1;exitX=1;exitY=0.5;exitDx=0;exitDy=0;entryX=0;entryY=0.5;entryDx=0;entryDy=0;" parent="1" source="IMPbgYh3Mk9xhIyb0hvB-24" target="IMPbgYh3Mk9xhIyb0hvB-27" edge="1">
          <mxGeometry relative="1" as="geometry" />
        </mxCell>
        <mxCell id="IMPbgYh3Mk9xhIyb0hvB-24" value="Accept custom proposal" style="ellipse;whiteSpace=wrap;html=1;" parent="1" vertex="1">
          <mxGeometry x="820" y="100" width="110" height="40" as="geometry" />
        </mxCell>
        <mxCell id="IMPbgYh3Mk9xhIyb0hvB-86" style="edgeStyle=orthogonalEdgeStyle;rounded=0;orthogonalLoop=1;jettySize=auto;html=1;exitX=1;exitY=0.5;exitDx=0;exitDy=0;entryX=0;entryY=0.5;entryDx=0;entryDy=0;" parent="1" source="IMPbgYh3Mk9xhIyb0hvB-76" target="IMPbgYh3Mk9xhIyb0hvB-27" edge="1">
          <mxGeometry relative="1" as="geometry" />
        </mxCell>
        <mxCell id="IMPbgYh3Mk9xhIyb0hvB-76" value="Manually assign projects" style="ellipse;whiteSpace=wrap;html=1;" parent="1" vertex="1">
          <mxGeometry x="820" y="180" width="110" height="40" as="geometry" />
        </mxCell>
        <mxCell id="IMPbgYh3Mk9xhIyb0hvB-78" value="View custom projects" style="ellipse;whiteSpace=wrap;html=1;" parent="1" vertex="1">
          <mxGeometry x="990" y="420" width="110" height="40" as="geometry" />
        </mxCell>
        <mxCell id="IMPbgYh3Mk9xhIyb0hvB-79" value="View all project preferences" style="ellipse;whiteSpace=wrap;html=1;" parent="1" vertex="1">
          <mxGeometry x="990" y="340" width="110" height="40" as="geometry" />
        </mxCell>
        <mxCell id="IMPbgYh3Mk9xhIyb0hvB-84" value="View all proposed projects" style="ellipse;whiteSpace=wrap;html=1;" parent="1" vertex="1">
          <mxGeometry x="990" y="500" width="110" height="40" as="geometry" />
        </mxCell>
        <mxCell id="IMPbgYh3Mk9xhIyb0hvB-85" value="View allocated projects" style="ellipse;whiteSpace=wrap;html=1;" parent="1" vertex="1">
          <mxGeometry x="990" y="580" width="110" height="40" as="geometry" />
        </mxCell>
        <mxCell id="IMPbgYh3Mk9xhIyb0hvB-95" style="edgeStyle=orthogonalEdgeStyle;rounded=0;orthogonalLoop=1;jettySize=auto;html=1;exitX=0;exitY=0.5;exitDx=0;exitDy=0;entryX=1;entryY=0.5;entryDx=0;entryDy=0;" parent="1" source="IMPbgYh3Mk9xhIyb0hvB-94" target="IMPbgYh3Mk9xhIyb0hvB-85" edge="1">
          <mxGeometry relative="1" as="geometry" />
        </mxCell>
        <mxCell id="IMPbgYh3Mk9xhIyb0hvB-96" style="edgeStyle=orthogonalEdgeStyle;rounded=0;orthogonalLoop=1;jettySize=auto;html=1;exitX=0;exitY=0.5;exitDx=0;exitDy=0;" parent="1" source="IMPbgYh3Mk9xhIyb0hvB-94" target="IMPbgYh3Mk9xhIyb0hvB-84" edge="1">
          <mxGeometry relative="1" as="geometry" />
        </mxCell>
        <mxCell id="IMPbgYh3Mk9xhIyb0hvB-94" value="View projects" style="ellipse;whiteSpace=wrap;html=1;" parent="1" vertex="1">
          <mxGeometry x="1220" y="500" width="110" height="40" as="geometry" />
        </mxCell>
        <mxCell id="IMPbgYh3Mk9xhIyb0hvB-114" style="edgeStyle=orthogonalEdgeStyle;rounded=0;orthogonalLoop=1;jettySize=auto;html=1;entryX=1;entryY=0.5;entryDx=0;entryDy=0;" parent="1" source="IMPbgYh3Mk9xhIyb0hvB-110" target="IMPbgYh3Mk9xhIyb0hvB-111" edge="1">
          <mxGeometry relative="1" as="geometry" />
        </mxCell>
        <mxCell id="IMPbgYh3Mk9xhIyb0hvB-115" style="edgeStyle=orthogonalEdgeStyle;rounded=0;orthogonalLoop=1;jettySize=auto;html=1;entryX=1;entryY=0.5;entryDx=0;entryDy=0;" parent="1" source="IMPbgYh3Mk9xhIyb0hvB-110" target="IMPbgYh3Mk9xhIyb0hvB-112" edge="1">
          <mxGeometry relative="1" as="geometry" />
        </mxCell>
        <mxCell id="IMPbgYh3Mk9xhIyb0hvB-116" style="edgeStyle=orthogonalEdgeStyle;rounded=0;orthogonalLoop=1;jettySize=auto;html=1;exitX=0;exitY=0.5;exitDx=0;exitDy=0;entryX=1;entryY=0.5;entryDx=0;entryDy=0;" parent="1" source="IMPbgYh3Mk9xhIyb0hvB-110" target="IMPbgYh3Mk9xhIyb0hvB-113" edge="1">
          <mxGeometry relative="1" as="geometry" />
        </mxCell>
        <mxCell id="IMPbgYh3Mk9xhIyb0hvB-110" value="Amend Projects" style="ellipse;whiteSpace=wrap;html=1;" parent="1" vertex="1">
          <mxGeometry x="1220" y="740" width="110" height="40" as="geometry" />
        </mxCell>
        <mxCell id="IMPbgYh3Mk9xhIyb0hvB-111" value="Create a project" style="ellipse;whiteSpace=wrap;html=1;" parent="1" vertex="1">
          <mxGeometry x="990" y="660" width="110" height="40" as="geometry" />
        </mxCell>
        <mxCell id="IMPbgYh3Mk9xhIyb0hvB-112" value="Edit a project" style="ellipse;whiteSpace=wrap;html=1;" parent="1" vertex="1">
          <mxGeometry x="990" y="740" width="110" height="40" as="geometry" />
        </mxCell>
        <mxCell id="IMPbgYh3Mk9xhIyb0hvB-113" value="Delete a project" style="ellipse;whiteSpace=wrap;html=1;" parent="1" vertex="1">
          <mxGeometry x="990" y="820" width="110" height="40" as="geometry" />
        </mxCell>
      </root>
    </mxGraphModel>
  </diagram>
</mxfile>
